<svg width="20" height="20" viewBox="0 0 20 20" fill="none" xmlns="http://www.w3.org/2000/svg">
<g id="briefcase">
<path id="Vector" d="M16.6666 5.83337H3.33329C2.41282 5.83337 1.66663 6.57957 1.66663 7.50004V15.8334C1.66663 16.7538 2.41282 17.5 3.33329 17.5H16.6666C17.5871 17.5 18.3333 16.7538 18.3333 15.8334V7.50004C18.3333 6.57957 17.5871 5.83337 16.6666 5.83337Z" stroke="#0B0B0B" stroke-width="2" stroke-linecap="round" stroke-linejoin="round"/>
<path id="Vector_2" d="M13.3333 17.5V4.16667C13.3333 3.72464 13.1577 3.30072 12.8451 2.98816C12.5326 2.67559 12.1087 2.5 11.6666 2.5H8.33329C7.89127 2.5 7.46734 2.67559 7.15478 2.98816C6.84222 3.30072 6.66663 3.72464 6.66663 4.16667V17.5" stroke="#0B0B0B" stroke-width="2" stroke-linecap="round" stroke-linejoin="round"/>
</g>
</svg>
